#N canvas 651 92 567 495 10;
#X obj 30 -50 color;
#X obj 30 99 polygon 4 ___;
#X obj 86 39 expr 1 - $f1;
#X obj 87 -122 inlet bng;
#X obj 30 -96 gemhead;
#X obj 150 -63 inlet count;
#X msg 111 80 0 -1 -\$1;
#X msg 87 -67 -1 0 1;
#X msg 47 -12 \$1 1 \$1;
#X msg 67 15 -1 \$1 0;
#X msg 86 62 -2 \$1 \$1;
#X connect 0 0 1 0;
#X connect 2 0 10 0;
#X connect 3 0 7 0;
#X connect 4 0 0 0;
#X connect 5 0 8 0;
#X connect 5 0 9 0;
#X connect 5 0 2 0;
#X connect 5 0 6 0;
#X connect 6 0 1 4;
#X connect 7 0 0 1;
#X connect 8 0 1 1;
#X connect 9 0 1 2;
#X connect 10 0 1 3;
