#N canvas 712 304 484 360 10;
#X obj 72 192 noise~;
#X obj 342 250 line~;
#X obj 342 149 inlet;
#X obj 240 319 outlet~;
#X obj 239 266 *~;
#X obj 238 185 *~ 0.1;
#X obj 239 295 *~ 0.1;
#X obj 239 236 *~ 0.2;
#X obj 297 114 bng 15 250 50 0 empty empty empty 17 7 0 10 -262144
-1 -1;
#X msg 342 188 1 \, 0 300;
#X obj 21 149 tri_wave;
#X obj 98 148 tri_wave;
#X obj 174 150 tri_wave;
#X obj 238 150 tri_wave;
#X obj 246 40 tgl 15 0 empty empty empty 17 7 0 10 -262144 -1 -1 0
1;
#X obj 246 65 metro 210;
#X floatatom 297 43 5 0 0 0 - - -, f 5;
#X obj 90 59 sel 0 1 2 3;
#X obj 90 8 counter;
#X obj 90 33 % 4;
#X obj 297 319 outlet;
#X obj 378 50 outlet;
#X msg 71 85 1200;
#X obj 239 209 hip~ 100;
#X msg 104 85 1800;
#X msg 138 85 2200;
#X msg 171 85 2800;
#X obj 299 3 ui.knob @size 38 38 @fontname "Helvetica" @fontweight
"normal" @fontslant "roman" @fontsize 11 @receive "(null)" @send "(null)"
@pinned 1 @presetname "(null)" @background_color 0.93 0.93 0.93 1 @border_color
0.6 0.6 0.6 1 @knob_color 0 0.75 1 1 @scale_color 0.6 0.6 0.6 1 @show_range
1 @draw_active 1 @min 100 @max 300;
#X connect 0 0 5 0;
#X connect 0 0 23 0;
#X connect 1 0 4 1;
#X connect 2 0 9 0;
#X connect 4 0 6 0;
#X connect 5 0 23 0;
#X connect 6 0 3 0;
#X connect 7 0 4 0;
#X connect 8 0 9 0;
#X connect 8 0 20 0;
#X connect 8 0 18 0;
#X connect 9 0 1 0;
#X connect 10 0 5 0;
#X connect 11 0 5 0;
#X connect 12 0 5 0;
#X connect 13 0 5 0;
#X connect 14 0 15 0;
#X connect 15 0 8 0;
#X connect 17 0 22 0;
#X connect 17 1 24 0;
#X connect 17 2 25 0;
#X connect 17 3 26 0;
#X connect 18 0 19 0;
#X connect 19 0 17 0;
#X connect 19 0 21 0;
#X connect 22 0 10 0;
#X connect 22 0 11 0;
#X connect 22 0 12 0;
#X connect 22 0 13 0;
#X connect 23 0 7 0;
#X connect 24 0 10 0;
#X connect 24 0 11 0;
#X connect 24 0 12 0;
#X connect 24 0 13 0;
#X connect 25 0 10 0;
#X connect 25 0 11 0;
#X connect 25 0 12 0;
#X connect 25 0 13 0;
#X connect 26 0 10 0;
#X connect 26 0 11 0;
#X connect 26 0 12 0;
#X connect 26 0 13 0;
#X connect 27 0 15 1;
#X connect 27 0 16 0;
#X coords 0 -1 1 1 100 60 1 240 1;
