#N canvas 138 62 506 548 10;
#X obj 99 48 hsl 100 12 0 200 0 0 empty empty empty -2 -8 0 10 -262144
-1 -1 0 1;
#X floatatom 164 29 5 0 0 0 - - -, f 5;
#X obj 33 43 tgl 15 0 empty empty empty 17 7 0 10 -262144 -1 -1 0 1
;
#X obj 206 264 *~;
#X obj 181 284 osc~ 2;
#X obj 181 307 *~ 1;
#X obj 232 198 bng 15 250 50 0 empty empty empty 17 7 0 10 -262144
-1 -1;
#X obj 33 99 metro 220;
#X obj 33 125 f;
#X obj 68 125 + 1;
#X obj 153 333 / 1000;
#X obj 96 212 unpack 0 0;
#X obj 153 356 / 2;
#X obj 255 213 pack f f;
#X obj 338 196 * 3;
#X msg 255 235 1 2 \, 0 \$2 2;
#X obj 232 302 pack f f;
#X msg 232 328 1 2 \, 0 \$2 2;
#X obj 153 377 + 0.5;
#X obj 96 126 % 128;
#X obj 232 354 vline~;
#X obj 255 261 vline~;
#X floatatom 96 21 5 0 0 0 - - -, f 5;
#X obj 217 403 *~;
#X obj 158 410 *~;
#X obj 217 433 lop~ 150;
#X obj 159 434 lop~ 200;
#X obj 103 247 phasor~;
#X obj 43 325 tri_wave;
#X obj 103 280 *~;
#X obj 42 394 +~;
#X obj 104 350 osc~;
#X obj 103 323 +~;
#X obj 103 387 +~;
#X obj 185 460 *~;
#X obj 186 506 outlet~;
#X obj 185 482 *~ 0.6;
#X obj 53 22 ui.knob @size 38 38 @fontname "Helvetica" @fontweight
"normal" @fontslant "roman" @fontsize 11 @receive "(null)" @send "(null)"
@pinned 1 @presetname "(null)" @background_color 0.93 0.93 0.93 1 @border_color
0.6 0.6 0.6 1 @knob_color 0 0.75 1 1 @scale_color 0.6 0.6 0.6 1 @show_range
1 @draw_active 1 @min 100 @max 300;
#X obj 96 157 ui.knob @size 40 40 @fontname "Helvetica" @fontweight
"normal" @fontslant "roman" @fontsize 11 @receive "(null)" @send "(null)"
@pinned 1 @presetname "(null)" @background_color 0.93 0.93 0.93 1 @border_color
0.6 0.6 0.6 1 @knob_color 0 0.75 1 1 @scale_color 0.6 0.6 0.6 1 @show_range
1 @draw_active 1 @min 0 @max 127;
#X connect 0 0 14 0;
#X connect 1 0 14 1;
#X connect 2 0 7 0;
#X connect 3 0 29 1;
#X connect 4 0 5 0;
#X connect 5 0 32 1;
#X connect 6 0 13 0;
#X connect 6 0 16 0;
#X connect 7 0 8 0;
#X connect 8 0 9 0;
#X connect 9 0 8 1;
#X connect 9 0 19 0;
#X connect 10 0 12 0;
#X connect 11 0 28 0;
#X connect 11 0 27 0;
#X connect 11 1 10 0;
#X connect 12 0 18 0;
#X connect 13 0 15 0;
#X connect 14 0 13 1;
#X connect 14 0 16 1;
#X connect 15 0 21 0;
#X connect 16 0 17 0;
#X connect 17 0 20 0;
#X connect 18 0 30 1;
#X connect 18 0 33 1;
#X connect 19 0 38 0;
#X connect 20 0 23 1;
#X connect 20 0 24 1;
#X connect 21 0 3 1;
#X connect 23 0 25 0;
#X connect 24 0 26 0;
#X connect 25 0 34 1;
#X connect 26 0 34 0;
#X connect 27 0 3 0;
#X connect 27 0 29 0;
#X connect 28 0 30 0;
#X connect 29 0 32 0;
#X connect 30 0 24 0;
#X connect 31 0 33 0;
#X connect 32 0 31 0;
#X connect 33 0 23 0;
#X connect 34 0 36 0;
#X connect 36 0 35 0;
#X connect 37 0 7 1;
#X connect 37 0 22 0;
#X connect 38 0 6 0;
#X connect 38 0 11 0;
#X coords 0 -1 1 1 200 50 1 5 15;
