#N canvas 202 108 806 563 10;
#X obj 4 -86 hradio 15 1 0 2 empty empty empty 0 -8 0 10 -262144 -1
-1 0;
#X text 1 -119 SOUND OUTPUT DEVICE;
#N canvas 569 284 266 100 sndONOFF 0;
#X text 28 6 OFF;
#X text 103 5 ON;
#X obj 22 -73 inlet;
#X obj 22 -39 sel 0 1;
#X msg 22 23 \; pd dsp 0;
#X msg 97 22 \; pd dsp 1;
#X connect 2 0 3 0;
#X connect 3 0 4 0;
#X connect 3 1 5 0;
#X restore 4 -70 pd sndONOFF;
#X text 22 -102 On;
#X text 1 -102 Off;
#X obj 146 -32 dac~;
#X obj 146 -102 sn808A;
#X obj 253 -34 dac~;
#X obj 9 129 sn808;
#X text 7 110 sn8o8x Audio (only);
#X obj 8 239 mixer;
#X obj 83 198 local_delay;
#X obj 8 198 dly_router;
#X obj 333 198 local_delay;
#X obj 257 198 dly_router;
#X obj 162 279 dac~;
#X obj 430 -15 local_delay;
#X obj 353 -15 dly_router;
#X obj 663 -40 dac~;
#X obj 220 24 mixer;
#X obj 435 65 dac~;
#X obj 560 -40 dac~;
#X obj 12 290 mixr;
#X obj 665 64 hhMOD;
#X obj 665 125 dac~;
#X obj 664 -17 hhMODII;
#X obj 664 44 dac~;
#X obj 663 -101 kd808A;
#X obj 516 160 melody;
#X obj 517 264 melodyII;
#X obj 114 128 sn808;
#X obj 560 -101 kd808A;
#X obj 354 -102 kd808A;
#X obj 457 -101 kd808A;
#X obj 250 -102 sn808A;
#X text 145 -121 sn8o8x Audio (only - working/waiting on GEM support)
;
#X connect 0 0 2 0;
#X connect 6 0 5 0;
#X connect 6 0 5 1;
#X connect 8 0 12 0;
#X connect 10 0 15 0;
#X connect 10 1 15 1;
#X connect 11 0 10 0;
#X connect 12 0 10 0;
#X connect 12 1 11 0;
#X connect 13 0 10 1;
#X connect 14 0 10 1;
#X connect 14 1 13 0;
#X connect 16 0 19 0;
#X connect 17 0 19 0;
#X connect 17 1 16 0;
#X connect 19 0 20 0;
#X connect 19 1 20 1;
#X connect 23 0 24 0;
#X connect 23 0 24 1;
#X connect 25 0 26 0;
#X connect 25 0 26 1;
#X connect 27 0 18 0;
#X connect 27 0 18 1;
#X connect 28 0 19 1;
#X connect 28 0 19 0;
#X connect 29 0 12 0;
#X connect 29 0 14 0;
#X connect 30 0 14 0;
#X connect 31 0 21 0;
#X connect 31 0 21 1;
#X connect 32 0 17 0;
#X connect 33 0 17 0;
#X connect 34 0 7 0;
#X connect 34 0 7 1;
