#N canvas 382 88 602 490 10;
#X obj 23 48 hradio 15 1 0 2 empty empty empty 0 -8 0 10 -262144 -1
-1 1;
#X text 20 16 SOUND OUTPUT DEVICE;
#N canvas 569 284 266 100 sndONOFF 0;
#X text 28 6 OFF;
#X text 103 5 ON;
#X obj 22 -73 inlet;
#X obj 22 -39 sel 0 1;
#X msg 22 23 \; pd dsp 0;
#X msg 97 22 \; pd dsp 1;
#X connect 2 0 3 0;
#X connect 3 0 4 0;
#X connect 3 1 5 0;
#X restore 23 64 pd sndONOFF;
#X text 41 32 On;
#X text 20 32 Off;
#X obj 220 21 fm_syn;
#X obj 218 67 local_delay;
#X obj 143 67 dly_router;
#X obj 144 245 mixer;
#X obj 145 431 dac~;
#X obj 297 400 recrd;
#X obj 145 300 mixr;
#X connect 0 0 2 0;
#X connect 5 0 7 0;
#X connect 6 0 8 0;
#X connect 7 0 8 0;
#X connect 7 1 6 0;
#X connect 8 0 11 0;
#X connect 8 1 11 1;
#X connect 10 0 9 0;
#X connect 10 1 9 1;
#X connect 11 0 9 0;
#X connect 11 0 9 1;
#X connect 11 0 10 0;
