#N canvas 511 251 677 385 10;
#X obj 117 112 inlet;
#N canvas 0 50 450 300 (subpatch) 0;
#X array melo 16 float 3;
#A 0 -0.0750015 0.225003 0.325005 0.600009 0.450007 0.425006 0.600009
0.225003 0.150002 0.0750007 -4.35859e-007 -0.0750016 -0.125002 -0.150003
-0.125002 -0.0250008;
#X coords 0 1 16 -1 140 80 1 0 0;
#X restore 55 25 graph;
#X floatatom 200 72 5 0 0 0 - - -, f 5;
#X floatatom 244 73 5 0 0 0 - - -, f 5;
#X obj 159 129 metro 210;
#X obj 159 155 f;
#X obj 216 154 % 16;
#X floatatom 251 154 5 0 0 0 - - -, f 5;
#X obj 189 154 + 1;
#X obj 217 203 + 1;
#X obj 217 226 * 60;
#X obj 217 249 mtof;
#X obj 256 227 * 60;
#X obj 256 250 mtof;
#X obj 216 322 *~;
#X obj 247 324 sig~;
#X obj 216 298 *~;
#X obj 216 350 outlet~;
#X obj 240 271 sqr_alt_waveII;
#X obj 217 176 tabread melo;
#X obj 181 272 square~;
#X obj 200 27 ui.knob @size 38 38 @fontname "Helvetica" @fontweight
"normal" @fontslant "roman" @fontsize 11 @receive "(null)" @send "(null)"
@pinned 1 @presetname "(null)" @background_color 0.93 0.93 0.93 1 @border_color
0.6 0.6 0.6 1 @knob_color 0 0.75 1 1 @scale_color 0.6 0.6 0.6 1 @show_range
1 @draw_active 1 @min 100 @max 300;
#X obj 244 27 ui.knob @size 38 38 @fontname "Helvetica" @fontweight
"normal" @fontslant "roman" @fontsize 11 @receive "(null)" @send "(null)"
@pinned 1 @presetname "(null)" @background_color 0.93 0.93 0.93 1 @border_color
0.6 0.6 0.6 1 @knob_color 0 0.75 1 1 @scale_color 0.6 0.6 0.6 1 @show_range
1 @draw_active 1 @min 100 @max 300;
#X connect 0 0 4 0;
#X connect 2 0 4 0;
#X connect 3 0 15 0;
#X connect 4 0 5 0;
#X connect 5 0 8 0;
#X connect 6 0 7 0;
#X connect 7 0 19 0;
#X connect 8 0 5 1;
#X connect 8 0 6 0;
#X connect 9 0 10 0;
#X connect 10 0 11 0;
#X connect 11 0 20 0;
#X connect 12 0 13 0;
#X connect 13 0 18 0;
#X connect 14 0 17 0;
#X connect 15 0 14 1;
#X connect 16 0 14 0;
#X connect 18 0 16 1;
#X connect 19 0 9 0;
#X connect 19 0 12 0;
#X connect 20 0 16 0;
#X connect 21 0 2 0;
#X connect 22 0 3 0;
#X coords 0 -1 1 1 265 100 1 20 8;
