#N canvas 685 379 468 258 10;
#X msg 177 80 roomsize \$1;
#X obj 180 52 hsl 60 15 0 1 0 0 empty empty empty -2 -8 0 10 -262144
-1 -1 4500 1;
#X obj 250 52 hsl 60 15 0 1 0 0 empty empty empty -2 -8 0 10 -262144
-1 -1 4200 1;
#X obj 320 52 hsl 60 15 0 1 0 0 empty empty empty -2 -8 0 10 -262144
-1 -1 5500 1;
#X text 18 -1 REVERB CNTRL;
#X obj 191 161 *~ 0.4;
#X obj 241 161 *~ 0.4;
#X obj 180 194 outlet~;
#X obj 242 193 outlet~;
#X obj 39 113 inlet~;
#X obj 355 113 inlet~;
#X msg 332 82 drywet \$1;
#X msg 267 81 damp \$1;
#X obj 190 130 fx.freeverb2~;
#X connect 0 0 13 0;
#X connect 1 0 0 0;
#X connect 2 0 12 0;
#X connect 3 0 11 0;
#X connect 5 0 7 0;
#X connect 6 0 8 0;
#X connect 9 0 13 0;
#X connect 10 0 13 0;
#X connect 11 0 13 0;
#X connect 12 0 13 0;
#X connect 13 0 5 0;
#X connect 13 1 6 0;
#X coords 0 -1 1 1 390 40 1 20 30;
